<?xml version="1.0" encoding="UTF-8"?>
<svg id="Layer_2" data-name="Layer 2" xmlns="http://www.w3.org/2000/svg" viewBox="0 0 495.67 100">
  <defs>
    <style>
      .cls-1, .cls-2, .cls-3 {
        stroke-width: 0px;
      }

      .cls-2 {
        fill: #0302fe;
      }

      .cls-3 {
        fill: #f2f2f2;
      }
    </style>
  </defs>
  <g id="Layer_1-2" data-name="Layer 1">
    <g>
      <g>
        <rect class="cls-2" width="100" height="100"/>
        <rect class="cls-3" x="38.35" y="19.12" width="14" height="61.77"/>
      </g>
      <g>
        <path class="cls-1" d="M150.9,31.41h6.53v38.99h-6.53l-.27-7.41c-1.22,2.2-2.9,3.99-5.04,5.36-2.14,1.37-4.69,2.05-7.64,2.05s-5.52-.53-8.01-1.58-4.69-2.51-6.59-4.37-3.39-4.01-4.45-6.44c-1.06-2.43-1.59-5.05-1.59-7.87s.52-5.27,1.56-7.68c1.04-2.41,2.48-4.51,4.33-6.33s4-3.23,6.44-4.26c2.44-1.03,5.05-1.54,7.85-1.54,3.06,0,5.74.7,8.05,2.11,2.31,1.41,4.17,3.22,5.6,5.45l-.23-6.5ZM137.83,64.21c2.57,0,4.79-.61,6.67-1.84s3.33-2.89,4.36-5c1.02-2.1,1.54-4.42,1.54-6.95s-.52-4.92-1.55-7.01c-1.04-2.09-2.5-3.75-4.37-4.98-1.88-1.23-4.09-1.84-6.63-1.84s-4.9.62-7,1.86-3.77,2.91-5,5c-1.23,2.09-1.85,4.41-1.85,6.97s.63,4.88,1.91,6.97c1.27,2.09,2.96,3.75,5.05,4.98s4.39,1.84,6.88,1.84Z"/>
        <path class="cls-1" d="M163.65,54.97v-23.56h6.53v22.15c0,1.92.48,3.67,1.44,5.24.96,1.57,2.25,2.82,3.87,3.74,1.62.93,3.4,1.39,5.35,1.39s3.75-.46,5.35-1.39c1.59-.92,2.87-2.17,3.83-3.74.96-1.57,1.44-3.32,1.44-5.24v-22.15h6.53l.04,39.02h-6.53l-.04-5.85c-1.37,1.77-3.11,3.19-5.21,4.24-2.1,1.05-4.37,1.58-6.8,1.58-2.9,0-5.55-.69-7.95-2.07s-4.3-3.24-5.72-5.57c-1.41-2.33-2.12-4.93-2.12-7.79Z"/>
        <path class="cls-1" d="M205.8,70.44V31.41h6.53v4.75c1.37-1.77,3.11-3.19,5.21-4.24,2.1-1.05,4.38-1.58,6.84-1.58,1.5,0,2.96.19,4.35.57l-2.64,6.38c-1.06-.33-2.1-.49-3.11-.49-1.94,0-3.73.46-5.35,1.39s-2.91,2.17-3.87,3.74c-.96,1.57-1.44,3.32-1.44,5.24v23.25h-6.53Z"/>
        <path class="cls-1" d="M262.76,31.41h6.53v39.02h-6.53l-.27-7.45c-1.22,2.2-2.9,3.99-5.04,5.36-2.14,1.37-4.69,2.05-7.64,2.05s-5.52-.53-8.01-1.58-4.69-2.51-6.59-4.37-3.39-4.01-4.45-6.44c-1.06-2.43-1.59-5.05-1.59-7.87s.52-5.27,1.56-7.68c1.04-2.41,2.48-4.51,4.33-6.33s4-3.23,6.44-4.26c2.44-1.03,5.05-1.54,7.85-1.54,3.06,0,5.74.7,8.05,2.11,2.31,1.41,4.17,3.22,5.6,5.45l-.23-6.5ZM249.7,64.21c2.57,0,4.79-.61,6.67-1.84s3.33-2.89,4.36-5c1.02-2.1,1.54-4.42,1.54-6.95s-.52-4.92-1.55-7.01c-1.04-2.09-2.5-3.75-4.37-4.98-1.88-1.23-4.09-1.84-6.63-1.84s-4.9.62-7,1.86-3.77,2.91-5,5c-1.23,2.09-1.85,4.41-1.85,6.97s.63,4.88,1.91,6.97c1.27,2.09,2.96,3.75,5.05,4.98s4.39,1.84,6.88,1.84Z"/>
        <path class="cls-1" d="M307.6,70.13c-2.1-.08-4.14-.46-6.12-1.16-1.98-.7-3.72-1.65-5.21-2.85-1.49-1.2-2.57-2.59-3.25-4.16l5.6-2.36c.39.86,1.09,1.67,2.1,2.43,1.01.76,2.18,1.37,3.5,1.82s2.66.68,4,.68c1.42,0,2.76-.21,4-.65s2.26-1.07,3.05-1.92c.79-.85,1.19-1.87,1.19-3.06,0-1.27-.43-2.26-1.3-2.98-.87-.72-1.96-1.29-3.27-1.71-1.31-.42-2.64-.82-3.99-1.2-2.67-.66-5.05-1.45-7.15-2.38s-3.75-2.1-4.96-3.53c-1.21-1.43-1.81-3.26-1.81-5.49,0-2.36.67-4.39,2-6.12,1.33-1.72,3.09-3.05,5.27-3.99s4.51-1.41,7-1.41c3.14,0,6,.66,8.59,1.98,2.59,1.32,4.52,3.1,5.79,5.36l-5.25,3c-.44-.91-1.11-1.72-2.02-2.41-.91-.7-1.94-1.25-3.11-1.65-1.17-.4-2.36-.62-3.58-.65-1.5-.05-2.91.14-4.22.57-1.31.43-2.36,1.08-3.15,1.96-.79.87-1.19,1.96-1.19,3.25s.42,2.23,1.26,2.89c.84.66,1.94,1.18,3.31,1.58,1.36.39,2.84.84,4.45,1.35,2.36.74,4.56,1.58,6.61,2.55,2.05.96,3.7,2.17,4.96,3.61,1.26,1.44,1.87,3.23,1.85,5.36,0,2.33-.71,4.36-2.14,6.1s-3.27,3.06-5.54,3.97-4.7,1.32-7.29,1.22Z"/>
        <path class="cls-1" d="M349.4,37.8h-8.83l-.04,32.64h-6.53l.04-32.64h-6.69v-6.38h6.69l-.04-11.93h6.53l.04,11.93h8.83v6.38Z"/>
        <path class="cls-1" d="M354.8,54.97v-23.56h6.53v22.15c0,1.92.48,3.67,1.44,5.24.96,1.57,2.25,2.82,3.87,3.74,1.62.93,3.4,1.39,5.35,1.39s3.75-.46,5.35-1.39c1.59-.92,2.87-2.17,3.83-3.74.96-1.57,1.44-3.32,1.44-5.24v-22.15h6.53l.04,39.02h-6.53l-.04-5.85c-1.37,1.77-3.11,3.19-5.21,4.24-2.1,1.05-4.37,1.58-6.8,1.58-2.9,0-5.55-.69-7.95-2.07s-4.3-3.24-5.72-5.57c-1.41-2.33-2.12-4.93-2.12-7.79Z"/>
        <path class="cls-1" d="M427.92,15.56h6.53l-.02,54.87h-6.53v-7.48c-1.32,2.23-3.1,4.03-5.33,5.4-2.23,1.37-4.85,2.05-7.85,2.05-2.83,0-5.47-.52-7.93-1.56-2.46-1.04-4.63-2.48-6.51-4.31-1.88-1.84-3.35-3.96-4.41-6.37-1.06-2.41-1.59-4.99-1.59-7.75s.53-5.35,1.59-7.77c1.06-2.42,2.53-4.55,4.41-6.38,1.88-1.84,4.05-3.27,6.51-4.31,2.46-1.04,5.11-1.56,7.93-1.56,3.01,0,5.62.68,7.85,2.05,2.23,1.37,4,3.17,5.33,5.4l.02-22.27ZM414.8,64.21c2.57,0,4.79-.61,6.67-1.84s3.33-2.89,4.36-5c1.02-2.1,1.54-4.42,1.54-6.95s-.52-4.92-1.55-7.01c-1.04-2.09-2.5-3.75-4.37-4.98-1.88-1.23-4.09-1.84-6.63-1.84s-4.89.62-6.98,1.86c-2.09,1.24-3.75,2.91-5,5-1.25,2.09-1.87,4.41-1.87,6.97s.63,4.88,1.91,6.97c1.27,2.09,2.96,3.75,5.05,4.98s4.39,1.84,6.88,1.84Z"/>
        <path class="cls-1" d="M447.11,25.22c-1.04,0-1.91-.33-2.61-.99-.7-.66-1.05-1.48-1.05-2.47s.35-1.81,1.05-2.47c.7-.66,1.56-.99,2.57-.99s1.87.33,2.57.99c.7.66,1.05,1.48,1.05,2.47s-.34,1.81-1.03,2.47c-.69.66-1.54.99-2.55.99ZM443.76,31.41h6.53v39.02h-6.53V31.41Z"/>
        <path class="cls-1" d="M476.23,70.4c-3.58,0-6.84-.9-9.78-2.7s-5.29-4.21-7.04-7.24c-1.75-3.03-2.62-6.38-2.62-10.05,0-2.79.51-5.39,1.52-7.81s2.4-4.55,4.18-6.38c1.78-1.84,3.84-3.27,6.2-4.31,2.36-1.04,4.87-1.56,7.54-1.56,3.58,0,6.84.9,9.78,2.7,2.94,1.8,5.29,4.22,7.04,7.26,1.75,3.04,2.62,6.41,2.62,10.11,0,2.76-.51,5.35-1.52,7.75-1.01,2.41-2.4,4.53-4.18,6.37s-3.84,3.27-6.18,4.31c-2.35,1.04-4.87,1.56-7.56,1.56ZM476.23,64.02c2.44,0,4.63-.63,6.59-1.88,1.96-1.25,3.5-2.91,4.63-4.98,1.13-2.06,1.69-4.31,1.69-6.75s-.58-4.76-1.73-6.84-2.7-3.74-4.65-4.98c-1.94-1.24-4.12-1.86-6.53-1.86s-4.63.63-6.57,1.88-3.49,2.92-4.63,5-1.71,4.34-1.71,6.8.58,4.83,1.75,6.9c1.17,2.06,2.73,3.7,4.71,4.9,1.97,1.2,4.12,1.8,6.45,1.8Z"/>
      </g>
    </g>
  </g>
</svg>